<svg width="2479" height="482" viewBox="0 0 2479 482" fill="none" xmlns="http://www.w3.org/2000/svg">
<g clip-path="url(#clip0_108_90)">
<circle cx="1052" cy="368" r="42" fill="#FFE870"/>
<line x1="1441.47" y1="226.529" x2="1584.53" y2="354.528" stroke="#4C8CBF" stroke-width="12" stroke-linecap="round"/>
<line x1="1026.47" y1="61.5293" x2="1169.53" y2="189.528" stroke="#FFE871" stroke-width="12" stroke-linecap="round"/>
<line x1="2135.47" y1="11.5293" x2="2278.53" y2="139.528" stroke="#FFE871" stroke-width="12" stroke-linecap="round"/>
<line x1="2151.47" y1="79.5293" x2="2294.53" y2="207.528" stroke="#FFE871" stroke-width="12" stroke-linecap="round"/>
<line x1="507.472" y1="72.5293" x2="650.529" y2="200.528" stroke="#FFE871" stroke-width="12" stroke-linecap="round"/>
<line x1="173.472" y1="255.529" x2="316.529" y2="383.528" stroke="#447CA9" stroke-width="12" stroke-linecap="round"/>
<line x1="1039.47" y1="129.529" x2="1182.53" y2="257.528" stroke="#FFE871" stroke-width="12" stroke-linecap="round"/>
<circle cx="1391.5" cy="147.5" r="88.5" stroke="#FFE870" stroke-width="12"/>
<circle cx="1392" cy="472" r="129" stroke="#FFE870" stroke-width="12"/>
<circle cx="1039" cy="386" r="80" stroke="#4C8CBF" stroke-width="12"/>
<circle cx="799.5" cy="86.5" r="74.5" stroke="#4C8CBF" stroke-width="12"/>
<circle cx="1692.5" cy="103.5" r="68.5" stroke="#4C8CBF" stroke-width="12"/>
<circle cx="2200.5" cy="514.5" r="145.5" stroke="#4C8CBF" stroke-width="12"/>
<line x1="1434.47" y1="163.529" x2="1577.53" y2="291.528" stroke="#4C8CBF" stroke-width="12" stroke-linecap="round"/>
<line x1="1779.47" y1="325.529" x2="1922.53" y2="453.528" stroke="#4C8CBF" stroke-width="12" stroke-linecap="round"/>
<path d="M903 347.5C903 382.018 875.018 410 840.5 410C805.982 410 778 382.018 778 347.5C778 312.982 805.982 285 840.5 285C875.018 285 903 312.982 903 347.5Z" fill="#FFE870"/>
<path d="M777 491C777 509.225 762.225 524 744 524C725.775 524 711 509.225 711 491C711 472.775 725.775 458 744 458C762.225 458 777 472.775 777 491Z" fill="#4C8CBF"/>
<path d="M598 104C598 138.794 569.794 167 535 167C500.206 167 472 138.794 472 104C472 69.2061 500.206 41 535 41C569.794 41 598 69.2061 598 104Z" fill="#4C8CBF"/>
<path d="M1988 199C1988 217.225 1973.23 232 1955 232C1936.77 232 1922 217.225 1922 199C1922 180.775 1936.77 166 1955 166C1973.23 166 1988 180.775 1988 199Z" fill="#4C8CBF"/>
<mask id="path-21-inside-1_108_90" fill="white">
<path d="M2059 198C2059 255.438 2012.44 302 1955 302C1897.56 302 1851 255.438 1851 198C1851 140.562 1897.56 94 1955 94C2012.44 94 2059 140.562 2059 198Z"/>
</mask>
<path d="M2047 198C2047 248.81 2005.81 290 1955 290V314C2019.07 314 2071 262.065 2071 198H2047ZM1955 290C1904.19 290 1863 248.81 1863 198H1839C1839 262.065 1890.93 314 1955 314V290ZM1863 198C1863 147.19 1904.19 106 1955 106V82C1890.93 82 1839 133.935 1839 198H1863ZM1955 106C2005.81 106 2047 147.19 2047 198H2071C2071 133.935 2019.07 82 1955 82V106Z" fill="#FFE871" mask="url(#path-21-inside-1_108_90)"/>
<mask id="path-23-inside-2_108_90" fill="white">
<path d="M692 363C692 438.111 631.111 499 556 499C480.889 499 420 438.111 420 363C420 287.889 480.889 227 556 227C631.111 227 692 287.889 692 363Z"/>
</mask>
<path d="M680 363C680 431.483 624.483 487 556 487V511C637.738 511 704 444.738 704 363H680ZM556 487C487.517 487 432 431.483 432 363H408C408 444.738 474.262 511 556 511V487ZM432 363C432 294.517 487.517 239 556 239V215C474.262 215 408 281.262 408 363H432ZM556 239C624.483 239 680 294.517 680 363H704C704 281.262 637.738 215 556 215V239Z" fill="#FFE871" mask="url(#path-23-inside-2_108_90)"/>
<mask id="path-25-inside-3_108_90" fill="white">
<path d="M1679 517C1679 539.091 1661.09 557 1639 557C1616.91 557 1599 539.091 1599 517C1599 494.909 1616.91 477 1639 477C1661.09 477 1679 494.909 1679 517Z"/>
</mask>
<path d="M1667 517C1667 532.464 1654.46 545 1639 545V569C1667.72 569 1691 545.719 1691 517H1667ZM1639 545C1623.54 545 1611 532.464 1611 517H1587C1587 545.719 1610.28 569 1639 569V545ZM1611 517C1611 501.536 1623.54 489 1639 489V465C1610.28 465 1587 488.281 1587 517H1611ZM1639 489C1654.46 489 1667 501.536 1667 517H1691C1691 488.281 1667.72 465 1639 465V489Z" fill="#FFE871" mask="url(#path-25-inside-3_108_90)"/>
<mask id="path-27-inside-4_108_90" fill="white">
<path d="M1714 398.5C1714 418.106 1698.11 434 1678.5 434C1658.89 434 1643 418.106 1643 398.5C1643 378.894 1658.89 363 1678.5 363C1698.11 363 1714 378.894 1714 398.5Z"/>
</mask>
<path d="M1702 398.5C1702 411.479 1691.48 422 1678.5 422V446C1704.73 446 1726 424.734 1726 398.5H1702ZM1678.5 422C1665.52 422 1655 411.479 1655 398.5H1631C1631 424.734 1652.27 446 1678.5 446V422ZM1655 398.5C1655 385.521 1665.52 375 1678.5 375V351C1652.27 351 1631 372.266 1631 398.5H1655ZM1678.5 375C1691.48 375 1702 385.521 1702 398.5H1726C1726 372.266 1704.73 351 1678.5 351V375Z" fill="#FFE871" mask="url(#path-27-inside-4_108_90)"/>
<path d="M1712 91.5C1712 102.27 1703.27 111 1692.5 111C1681.73 111 1673 102.27 1673 91.5C1673 80.7304 1681.73 72 1692.5 72C1703.27 72 1712 80.7304 1712 91.5Z" fill="#FFE870"/>
<path d="M1578 72.5C1578 83.2696 1569.27 92 1558.5 92C1547.73 92 1539 83.2696 1539 72.5C1539 61.7304 1547.73 53 1558.5 53C1569.27 53 1578 61.7304 1578 72.5Z" fill="#FFE870"/>
<circle cx="1170" cy="498" r="26" fill="#FFE870"/>
<circle cx="1374" cy="138" r="26" fill="#4C8CBF"/>
<circle cx="1400" cy="498" r="57" fill="#4C8CBF"/>
<line x1="205.472" y1="341.529" x2="348.529" y2="469.528" stroke="#4C8CBF" stroke-width="12" stroke-linecap="round"/>
<path d="M518 455.5C518 531.991 455.991 594 379.5 594C303.009 594 241 531.991 241 455.5C241 379.009 303.009 317 379.5 317C455.991 317 518 379.009 518 455.5Z" fill="#FFE870"/>
<mask id="path-36-inside-5_108_90" fill="white">
<path d="M279 69.5C279 123.348 235.348 167 181.5 167C127.652 167 84 123.348 84 69.5C84 15.6522 127.652 -28 181.5 -28C235.348 -28 279 15.6522 279 69.5Z"/>
</mask>
<path d="M267 69.5C267 116.72 228.72 155 181.5 155V179C241.975 179 291 129.975 291 69.5H267ZM181.5 155C134.28 155 96 116.72 96 69.5H72C72 129.975 121.025 179 181.5 179V155ZM96 69.5C96 22.2797 134.28 -16 181.5 -16V-40C121.025 -40 72 9.02482 72 69.5H96ZM181.5 -16C228.72 -16 267 22.2797 267 69.5H291C291 9.02482 241.975 -40 181.5 -40V-16Z" fill="#FFE870" mask="url(#path-36-inside-5_108_90)"/>
<line x1="17.4722" y1="-63.4707" x2="160.529" y2="64.5278" stroke="#4C8CBF" stroke-width="12" stroke-linecap="round"/>
<circle cx="168" cy="67" r="33" fill="#FFE870"/>
<line x1="-69.5278" y1="226.529" x2="73.5293" y2="354.528" stroke="#FFE871" stroke-width="12" stroke-linecap="round"/>
<line x1="-64.5278" y1="313.529" x2="78.5293" y2="441.528" stroke="#FFE871" stroke-width="12" stroke-linecap="round"/>
<path d="M2377 165.5C2377 219.9 2332.9 264 2278.5 264C2224.1 264 2180 219.9 2180 165.5C2180 111.1 2224.1 67 2278.5 67C2332.9 67 2377 111.1 2377 165.5Z" fill="#FFE870"/>
<line x1="2424.47" y1="313.529" x2="2567.53" y2="441.528" stroke="#FFE871" stroke-width="12" stroke-linecap="round"/>
<circle cx="2452" cy="345" r="63" fill="#3B6488"/>
<rect opacity="0.33" x="-67" y="-293" width="2608" height="1142" fill="#181318"/>
<path fill-rule="evenodd" clip-rule="evenodd" d="M1278.27 139.135C1251.61 135.19 1225.18 135.228 1199 139.248C1196.5 133.217 1192.78 125.636 1189.64 120C1164.29 124.397 1140.03 132.146 1117.38 142.799C1071.68 212.011 1059.29 279.505 1065.49 346.039C1095.8 368.725 1125.17 382.506 1154.05 391.524C1161.18 381.689 1167.53 371.233 1173.01 360.215C1162.58 356.241 1152.59 351.338 1143.14 345.645C1145.65 343.785 1148.1 341.841 1150.47 339.84C1161.45 344.989 1172.62 349.156 1183.89 352.341C1195.99 355.761 1259.63 201.754 1278.27 139.135ZM1149.39 269.247C1149.39 288.945 1163.57 305.121 1180.86 305.121C1198.45 305.121 1212.35 288.945 1212.32 269.247C1212.63 249.52 1198.45 233.344 1180.86 233.344C1163.27 233.344 1149.39 249.548 1149.39 269.247Z" fill="url(#paint0_linear_108_90)"/>
<path fill-rule="evenodd" clip-rule="evenodd" d="M1208.83 358.362C1249.2 364.794 1289.06 358.095 1327.53 339.84C1329.93 341.841 1332.38 343.785 1334.85 345.645C1325.38 351.366 1315.36 356.269 1304.93 360.243C1310.41 371.233 1316.74 381.717 1323.9 391.552C1352.8 382.534 1382.2 368.754 1412.51 346.039C1419.78 268.908 1400.1 202.035 1360.48 142.742C1342.68 134.395 1323.92 127.84 1304.41 123.281C1289.72 165.341 1257.63 240.034 1234.04 294.924C1221.59 323.893 1204 357.593 1208.83 358.362ZM1265.67 269.247C1265.67 288.945 1279.85 305.121 1297.14 305.121C1314.73 305.121 1328.61 288.945 1328.61 269.247C1328.91 249.52 1314.73 233.344 1297.14 233.344C1279.55 233.344 1265.67 249.548 1265.67 269.247Z" fill="url(#paint1_linear_108_90)"/>
</g>
<defs>
<linearGradient id="paint0_linear_108_90" x1="1355.16" y1="344.784" x2="1127.36" y2="251.251" gradientUnits="userSpaceOnUse">
<stop stop-color="#FFD43B"/>
<stop offset="0.53125" stop-color="#FFE871"/>
<stop offset="0.589043" stop-color="#306998"/>
<stop offset="1" stop-color="#4C8CBF"/>
</linearGradient>
<linearGradient id="paint1_linear_108_90" x1="1355.16" y1="344.784" x2="1127.36" y2="251.251" gradientUnits="userSpaceOnUse">
<stop stop-color="#FFD43B"/>
<stop offset="0.53125" stop-color="#FFE871"/>
<stop offset="0.589043" stop-color="#306998"/>
<stop offset="1" stop-color="#4C8CBF"/>
</linearGradient>
<clipPath id="clip0_108_90">
<rect width="2479" height="482" fill="white"/>
</clipPath>
</defs>
</svg>
