<svg width="116" height="90" viewBox="0 0 116 90" fill="none" xmlns="http://www.w3.org/2000/svg">
<path fill-rule="evenodd" clip-rule="evenodd" d="M71.0162 6.34204C62.1779 5.03445 53.4202 5.04687 44.7429 6.3793C43.9127 4.38058 42.681 1.86803 41.6409 0C33.2379 1.45717 25.1998 4.02565 17.6909 7.55613C2.54544 30.4951 -1.56025 52.8644 0.492597 74.916C10.5379 82.4346 20.273 87.002 29.8438 89.9908C32.2069 86.7311 34.3144 83.2659 36.13 79.614C32.6721 78.2971 29.3602 76.672 26.2309 74.7853C27.0611 74.1688 27.8731 73.5243 28.6577 72.8611C32.2983 74.5678 35.9989 75.9489 39.7351 77.0046C43.7461 78.1378 64.8365 27.0955 71.0162 6.34204ZM28.3018 49.4646C28.3018 55.9932 33.0007 61.3544 38.7304 61.3544C44.5605 61.3544 49.1679 55.9932 49.1589 49.4646C49.2592 42.9265 44.5605 37.5655 38.7304 37.5655C32.9003 37.5655 28.3018 42.9359 28.3018 49.4646Z" fill="url(#paint0_linear)"/>
<path fill-rule="evenodd" clip-rule="evenodd" d="M48 79C61.379 81.1319 74.5899 78.9115 87.3419 72.8611C88.1357 73.5243 88.9476 74.1688 89.7687 74.7853C86.6302 76.6812 83.3092 78.3063 79.8513 79.6234C81.6669 83.2659 83.7654 86.7405 86.1375 90C95.7176 87.0112 105.462 82.444 115.507 74.916C117.916 49.3525 111.392 27.1887 98.263 7.53748C92.3637 4.77102 86.1433 2.59844 79.6772 1.08753C74.8098 15.0273 64.173 39.7828 56.3564 57.9747C52.2309 67.5761 46.4005 78.7451 48 79ZM66.8407 49.4646C66.8407 55.9932 71.5396 61.3544 77.2693 61.3544C83.0993 61.3544 87.6978 55.9932 87.6978 49.4646C87.7981 42.9265 83.0993 37.5655 77.2693 37.5655C71.4391 37.5655 66.8407 42.9359 66.8407 49.4646Z" fill="url(#paint1_linear)"/>
<defs>
<linearGradient id="paint0_linear" x1="96.4992" y1="74.5" x2="20.9996" y2="43.5004" gradientUnits="userSpaceOnUse">
<stop stop-color="#FFD43B"/>
<stop offset="0.53125" stop-color="#FFE871"/>
<stop offset="0.589043" stop-color="#306998"/>
<stop offset="1" stop-color="#4C8CBF"/>
</linearGradient>
<linearGradient id="paint1_linear" x1="96.4992" y1="74.5" x2="20.9996" y2="43.5004" gradientUnits="userSpaceOnUse">
<stop stop-color="#FFD43B"/>
<stop offset="0.53125" stop-color="#FFE871"/>
<stop offset="0.589043" stop-color="#306998"/>
<stop offset="1" stop-color="#4C8CBF"/>
</linearGradient>
</defs>
</svg>
