<svg width="67" height="59" viewBox="0 0 67 59" fill="none" xmlns="http://www.w3.org/2000/svg">
<path d="M10.3633 23.1698L19.6858 26.563L29.1463 23.1196L19.8238 19.7265L10.3633 23.1698Z" fill="#F7F7F4" stroke="#CCCCCC" stroke-width="0.212801" stroke-linejoin="bevel"/>
<path d="M10.3633 23.1698L19.6858 26.5629V37.5199L10.3633 34.1268V23.1698Z" fill="#EFEEEA" stroke="#CCCCCC" stroke-width="0.212801" stroke-linejoin="bevel"/>
<path d="M19.7264 15.5089L29.049 18.902L38.5095 15.4587L29.1869 12.0656L19.7264 15.5089Z" fill="#F7F7F4" stroke="#CCCCCC" stroke-width="0.212801" stroke-linejoin="bevel"/>
<path d="M19.7264 15.5089L29.049 18.902V29.859L19.7264 26.4659V15.5089Z" fill="#EFEEEA" stroke="#CCCCCC" stroke-width="0.212801" stroke-linejoin="bevel"/>
<path d="M1 37.6402L10.3225 41.0334L19.783 37.59L10.4605 34.1969L1 37.6402Z" fill="#F7F7F4" stroke="#CCCCCC" stroke-width="0.212801" stroke-linejoin="bevel"/>
<path d="M1 37.6403L10.3225 41.0334V51.9904L1 48.5973V37.6403Z" fill="#EFEEEA" stroke="#CCCCCC" stroke-width="0.212801" stroke-linejoin="bevel"/>
<path d="M10.3632 41.0451L19.6857 44.4382V55.3952L10.3632 52.0021V41.0451Z" fill="#EFEEEA" stroke="#CCCCCC" stroke-width="0.212801" stroke-linejoin="bevel"/>
<path d="M10.3632 29.9794L19.6857 33.3725L29.1462 29.9292L19.8237 26.5361L10.3632 29.9794Z" fill="#F7F7F4" stroke="#CCCCCC" stroke-width="0.212801" stroke-linejoin="bevel"/>
<path d="M10.3632 29.9794L19.6857 33.3725V44.3295L10.3632 40.9364V29.9794Z" fill="#EFEEEA" stroke="#CCCCCC" stroke-width="0.212801" stroke-linejoin="bevel"/>
<path d="M57.1387 37.6285V48.5855L66.5992 45.1422V34.1852L57.1387 37.6285Z" fill="white" stroke="#CCCCCC" stroke-width="0.212801" stroke-linejoin="bevel"/>
<path d="M47.7753 41.0333V51.9903L57.2358 48.547V37.59L47.7753 41.0333Z" fill="#FFD242" stroke="#CCCCCC" stroke-width="0.212801" stroke-linejoin="bevel"/>
<path d="M53.7044 46.2999C54.7078 45.9347 55.5213 44.773 55.5213 43.7051C55.5213 42.6372 54.7078 42.0676 53.7044 42.4328C52.7009 42.798 51.8875 43.9598 51.8875 45.0277C51.8875 46.0956 52.7009 46.6652 53.7044 46.2999Z" fill="white"/>
<path d="M38.4122 44.4382V55.3952L47.8727 51.9519V40.9949L38.4122 44.4382Z" fill="#FFD242" stroke="#CCCCCC" stroke-width="0.212801" stroke-linejoin="bevel"/>
<path d="M29.049 47.843V58.8L38.5095 55.3567V44.3997L29.049 47.843Z" fill="white" stroke="#CCCCCC" stroke-width="0.212801" stroke-linejoin="bevel"/>
<path d="M19.7264 44.4498L29.049 47.843V58.8L19.7264 55.4068V44.4498Z" fill="#EFEEEA" stroke="#CCCCCC" stroke-width="0.212801" stroke-linejoin="bevel"/>
<path d="M57.1387 26.563V37.52L66.5992 34.0766V23.1196L57.1387 26.563Z" fill="#FFD242" stroke="#CCCCCC" stroke-width="0.212801" stroke-linejoin="bevel"/>
<path d="M47.8162 12.1042L57.1387 15.4973L66.5992 12.054L57.2767 8.66083L47.8162 12.1042Z" fill="#FFC91D" stroke="#CCCCCC" stroke-width="0.212801" stroke-linejoin="bevel"/>
<path d="M57.1387 15.4972V26.4542L66.5992 23.0109V12.0539L57.1387 15.4972Z" fill="#FFD242" stroke="#CCCCCC" stroke-width="0.212801" stroke-linejoin="bevel"/>
<path d="M47.7753 29.9678V40.9248L57.2358 37.4814V26.5244L47.7753 29.9678Z" fill="#FFD242" stroke="#CCCCCC" stroke-width="0.212801" stroke-linejoin="bevel"/>
<path d="M47.7753 18.902V29.859L57.2358 26.4157V15.4587L47.7753 18.902Z" fill="#3775A9" stroke="#CCCCCC" stroke-width="0.212801" stroke-linejoin="bevel"/>
<path d="M38.4529 4.44334L47.7754 7.83647L57.2359 4.39313L47.9134 1L38.4529 4.44334Z" fill="#2F6491" stroke="#CCCCCC" stroke-width="0.212801" stroke-linejoin="bevel"/>
<path d="M47.7753 7.83641V18.7934L57.2358 15.3501V4.39307L47.7753 7.83641Z" fill="#3775A9" stroke="#CCCCCC" stroke-width="0.212801" stroke-linejoin="bevel"/>
<path d="M38.4122 33.3725V44.3296L47.8727 40.8862V29.9292L38.4122 33.3725Z" fill="#FFD242" stroke="#CCCCCC" stroke-width="0.212801" stroke-linejoin="bevel"/>
<path d="M38.4122 22.3069V33.2639L47.8727 29.8205V18.8635L38.4122 22.3069Z" fill="#3775A9" stroke="#CCCCCC" stroke-width="0.212801" stroke-linejoin="bevel"/>
<path d="M29.049 36.7773V47.7343L38.5095 44.291V33.334L29.049 36.7773Z" fill="#3775A9" stroke="#CCCCCC" stroke-width="0.212801" stroke-linejoin="bevel"/>
<path d="M19.7264 33.3842L29.049 36.7773V47.7343L19.7264 44.3412V33.3842Z" fill="#2F6491" stroke="#CCCCCC" stroke-width="0.212801" stroke-linejoin="bevel"/>
<path d="M19.7264 22.3186L29.049 25.7117L38.5095 22.2684L29.1869 18.8752L19.7264 22.3186Z" fill="#2F6491" stroke="#CCCCCC" stroke-width="0.212801" stroke-linejoin="bevel"/>
<path d="M29.049 25.7117V36.6687L38.5095 33.2254V22.2684L29.049 25.7117Z" fill="#3775A9" stroke="#CCCCCC" stroke-width="0.212801" stroke-linejoin="bevel"/>
<path d="M19.7264 22.3186L29.049 25.7117V36.6687L19.7264 33.2756V22.3186Z" fill="#2F6491" stroke="#CCCCCC" stroke-width="0.212801" stroke-linejoin="bevel"/>
<path d="M29.0898 7.84819L38.4124 11.2413L47.8729 7.79797L38.5503 4.40485L29.0898 7.84819Z" fill="#2F6491" stroke="#CCCCCC" stroke-width="0.212801" stroke-linejoin="bevel"/>
<path d="M38.4122 11.2413V22.1983L47.8727 18.755V7.79797L38.4122 11.2413Z" fill="#3775A9" stroke="#CCCCCC" stroke-width="0.212801" stroke-linejoin="bevel"/>
<path d="M29.0898 7.84814L38.4124 11.2413V22.1983L29.0898 18.8052V7.84814Z" fill="#2F6491" stroke="#CCCCCC" stroke-width="0.212801" stroke-linejoin="bevel"/>
<path d="M41.9439 17.3553C42.9473 16.9901 43.7608 15.8284 43.7608 14.7605C43.7608 13.6926 42.9473 13.1231 41.9439 13.4883C40.9404 13.8535 40.127 15.0152 40.127 16.0831C40.127 17.151 40.9404 17.7206 41.9439 17.3553Z" fill="white"/>
</svg>
